<svg width="38" height="39" viewBox="0 0 38 39" fill="none" xmlns="http://www.w3.org/2000/svg">
<path fill-rule="evenodd" clip-rule="evenodd" d="M11.4795 15.8438C11.4795 11.6902 14.8467 8.323 19.0003 8.323C23.1539 8.323 26.5212 11.6902 26.5212 15.8438C26.5212 19.9975 23.1539 23.3647 19.0003 23.3647C14.8467 23.3647 11.4795 19.9975 11.4795 15.8438ZM19.0003 10.698C16.1584 10.698 13.8545 13.0019 13.8545 15.8438C13.8545 18.6858 16.1584 20.9897 19.0003 20.9897C21.8423 20.9897 24.1462 18.6858 24.1462 15.8438C24.1462 13.0019 21.8423 10.698 19.0003 10.698Z" fill="#B4B8C0"/>
<path fill-rule="evenodd" clip-rule="evenodd" d="M5.58012 14.0338C6.14114 7.22767 11.8287 1.98962 18.6579 1.98962H19.3419C26.1711 1.98962 31.8586 7.22767 32.4196 14.0338C32.721 17.69 31.5917 21.3204 29.2694 24.1604L21.6805 33.4416C20.295 35.1359 17.7047 35.1359 16.3193 33.4416L8.73032 24.1604C6.40811 21.3204 5.27875 17.69 5.58012 14.0338ZM18.6579 4.36462C13.0647 4.36462 8.40656 8.65463 7.94709 14.2289C7.69626 17.2718 8.63621 20.2933 10.5689 22.657L18.1579 31.9382C18.5931 32.4704 19.4066 32.4704 19.8419 31.9382L27.4308 22.657C29.3636 20.2933 30.3035 17.2718 30.0527 14.2289C29.5932 8.65463 24.935 4.36462 19.3419 4.36462H18.6579Z" fill="#B4B8C0"/>
</svg>
