<svg width="39" height="39" viewBox="0 0 39 39" fill="none" xmlns="http://www.w3.org/2000/svg">
<path fill-rule="evenodd" clip-rule="evenodd" d="M10.0027 15.6114C12.8326 21.7735 17.8684 26.6727 24.1284 29.3273L24.1482 29.3357L25.3576 29.8746C26.8977 30.5609 28.7077 30.0735 29.6951 28.7069L31.7129 25.9144C31.8361 25.7439 31.8043 25.5067 31.6405 25.3745L28.1181 22.5327C27.943 22.3915 27.6854 22.4244 27.5514 22.6051L26.1806 24.455C25.8476 24.9044 25.2462 25.0605 24.7369 24.83C20.0559 22.7115 16.2943 18.95 14.1759 14.269C13.9454 13.7595 14.1015 13.1583 14.5508 12.8253L16.4007 11.4544C16.5815 11.3204 16.6144 11.0629 16.4731 10.8878L13.6309 7.36483C13.4988 7.20108 13.2618 7.16929 13.0912 7.29243L10.2835 9.31935C8.90787 10.3124 8.42345 12.1377 9.1256 13.6822L10.0017 15.6094C10.002 15.6101 10.0024 15.6107 10.0027 15.6114ZM23.1912 31.5096C16.3892 28.6222 10.9182 23.2975 7.84335 16.6003L7.8415 16.5963L6.96354 14.6651C5.7933 12.091 6.60067 9.04877 8.89332 7.3937L11.701 5.36678C12.8951 4.50479 14.5548 4.72743 15.4794 5.87359L18.3215 9.39658C19.3105 10.6224 19.0801 12.4248 17.8147 13.3625L16.7547 14.1481C18.5454 17.6225 21.3832 20.4605 24.8577 22.251L25.6433 21.191C26.581 19.9258 28.3835 19.6954 29.6093 20.6843L33.1317 23.5259C34.2782 24.4509 34.5007 26.1114 33.6379 27.3054L31.6201 30.0979C29.9746 32.3755 26.9577 33.1878 24.3911 32.0441L23.1912 31.5096Z" fill="#B4B8C0"/>
</svg>
