<svg width="38" height="39" viewBox="0 0 38 39" fill="none" xmlns="http://www.w3.org/2000/svg">
<path fill-rule="evenodd" clip-rule="evenodd" d="M4.43987 13.2405C3.99632 17.3618 4.01609 22.1149 4.63331 26.2194C4.97483 28.4906 6.82839 30.2316 9.11642 30.4306L11.5076 30.6383C16.4936 31.0719 21.5077 31.0719 26.4938 30.6383L28.885 30.4306C31.173 30.2316 33.0267 28.4906 33.3682 26.2194C33.9854 22.1149 34.0052 17.3621 33.5615 13.2408C33.5042 12.763 33.4397 12.2858 33.3682 11.8095C33.0267 9.53837 31.173 7.79725 28.885 7.59836L26.4938 7.3905C21.5077 6.95707 16.4936 6.95707 11.5076 7.3905L9.11642 7.59836C6.82839 7.79725 4.97483 9.53837 4.63331 11.8095C4.56169 12.2857 4.49722 12.7628 4.43987 13.2405ZM11.7133 9.75658C16.5624 9.33505 21.439 9.33505 26.2881 9.75658L28.6793 9.96444C29.8736 10.0683 30.8412 10.9771 31.0195 12.1626C31.038 12.2858 31.056 12.4089 31.0736 12.5322L22.2687 17.4238C20.2363 18.5529 17.7651 18.5529 15.7327 17.4238L6.92786 12.5322C6.94537 12.409 6.96339 12.2858 6.9819 12.1626C7.16018 10.9771 8.12774 10.0683 9.32209 9.96444L11.7133 9.75658ZM31.3642 15.0876C31.6713 18.6782 31.5564 22.2959 31.0195 25.8662C30.8412 27.0518 29.8736 27.9606 28.6793 28.0645L26.2881 28.2724C21.439 28.6938 16.5624 28.6938 11.7133 28.2724L9.32209 28.0645C8.12774 27.9606 7.16018 27.0518 6.9819 25.8662C6.445 22.2959 6.33012 18.6783 6.63724 15.0877L14.5793 19.4999C17.329 21.0275 20.6724 21.0275 23.422 19.4999L31.3642 15.0876Z" fill="#B4B8C0"/>
</svg>
