<svg width="24" height="24" viewBox="0 0 24 24" fill="none" xmlns="http://www.w3.org/2000/svg">
<path fill-rule="evenodd" clip-rule="evenodd" d="M11.4152 2.39511C11.7963 2.27797 12.2039 2.27797 12.585 2.39511L15.5707 3.31277C17.1284 3.79152 18.6076 4.49538 19.9617 5.40203C21.0148 6.10722 20.5156 7.74997 19.2482 7.74997H4.75203C3.48458 7.74997 2.98538 6.10722 4.03853 5.40204C5.39256 4.49538 6.87186 3.79152 8.4295 3.31277L11.4152 2.39511ZM12.1443 3.82891C12.0503 3.80003 11.9499 3.80003 11.8559 3.82891L8.87018 4.74658C7.68937 5.1095 6.55803 5.61454 5.50081 6.24997H18.4994C17.4422 5.61454 16.3108 5.1095 15.13 4.74658L12.1443 3.82891Z" fill="#B9BFC6"/>
<path d="M4.25 21C4.25 20.5858 4.58579 20.25 5 20.25H19C19.4142 20.25 19.75 20.5858 19.75 21C19.75 21.4142 19.4142 21.75 19 21.75H5C4.58579 21.75 4.25 21.4142 4.25 21Z" fill="#B9BFC6"/>
<path d="M6.25 17C6.25 17.4142 6.58579 17.75 7 17.75C7.41421 17.75 7.75 17.4142 7.75 17V11C7.75 10.5858 7.41421 10.25 7 10.25C6.58579 10.25 6.25 10.5858 6.25 11V17Z" fill="#B9BFC6"/>
<path d="M12 17.75C11.5858 17.75 11.25 17.4142 11.25 17V11C11.25 10.5858 11.5858 10.25 12 10.25C12.4142 10.25 12.75 10.5858 12.75 11V17C12.75 17.4142 12.4142 17.75 12 17.75Z" fill="#B9BFC6"/>
<path d="M16.25 17C16.25 17.4142 16.5858 17.75 17 17.75C17.4142 17.75 17.75 17.4142 17.75 17V11C17.75 10.5858 17.4142 10.25 17 10.25C16.5858 10.25 16.25 10.5858 16.25 11V17Z" fill="#B9BFC6"/>
</svg>
