<svg width="25" height="24" viewBox="0 0 25 24" fill="none" xmlns="http://www.w3.org/2000/svg">
<path fill-rule="evenodd" clip-rule="evenodd" d="M7.49933 3.25C7.91354 3.25 8.24933 3.58579 8.24933 4V5.66763C11.077 5.4158 13.9216 5.4158 16.7493 5.66763V4C16.7493 3.58579 17.0851 3.25 17.4993 3.25C17.9135 3.25 18.2493 3.58579 18.2493 4V5.81644C19.7423 6.02754 20.9219 7.20847 21.1215 8.71484L21.2081 9.36779C21.5721 12.1141 21.5407 14.8984 21.1147 17.6359C20.9037 18.9919 19.8021 20.0335 18.4363 20.1681L17.2433 20.2858C14.0883 20.5969 10.9103 20.5969 7.75526 20.2858L6.56225 20.1681C5.19651 20.0335 4.09485 18.9919 3.88384 17.6359C3.45788 14.8984 3.42644 12.1141 3.79048 9.36779L3.87703 8.71484C4.07671 7.20845 5.25626 6.02751 6.74933 5.81643V4C6.74933 3.58579 7.08512 3.25 7.49933 3.25ZM7.94449 7.2028C10.9737 6.90408 14.0249 6.90408 17.0541 7.2028L17.9595 7.2921C18.8263 7.37757 19.5201 8.04854 19.6345 8.91194L19.7211 9.56489C19.7513 9.793 19.7787 10.0214 19.8032 10.25H5.19539C5.21988 10.0214 5.24723 9.79301 5.27747 9.5649L5.36402 8.91194C5.47847 8.04854 6.17229 7.37757 7.03904 7.2921L7.94449 7.2028ZM5.07616 11.75C4.97798 13.6381 5.07471 15.5332 5.366 17.4052C5.47184 18.0854 6.02442 18.6078 6.70946 18.6754L7.90247 18.793C10.9596 19.0945 14.039 19.0945 17.0961 18.793L18.2891 18.6754C18.9741 18.6078 19.5267 18.0854 19.6326 17.4052C19.9239 15.5332 20.0206 13.6381 19.9224 11.75H5.07616Z" fill="white"/>
</svg>
