<svg width="51" height="50" viewBox="0 0 51 50" fill="none" xmlns="http://www.w3.org/2000/svg">
<path d="M17.1663 19.7917C15.7281 19.7917 14.5622 20.9576 14.5622 22.3959C14.5622 23.834 15.7281 25.0001 17.1663 25.0001C18.6046 25.0001 19.7705 23.834 19.7705 22.3959C19.7705 20.9576 18.6046 19.7917 17.1663 19.7917Z" fill="#7B8A90"/>
<path d="M25.4997 19.7917C24.0613 19.7917 22.8955 20.9576 22.8955 22.3959C22.8955 23.834 24.0613 25.0001 25.4997 25.0001C26.938 25.0001 28.1038 23.834 28.1038 22.3959C28.1038 20.9576 26.938 19.7917 25.4997 19.7917Z" fill="#7B8A90"/>
<path d="M31.2288 22.3959C31.2288 20.9576 32.3947 19.7917 33.833 19.7917C35.2713 19.7917 36.4372 20.9576 36.4372 22.3959C36.4372 23.834 35.2713 25.0001 33.833 25.0001C32.3947 25.0001 31.2288 23.834 31.2288 22.3959Z" fill="#7B8A90"/>
<path fill-rule="evenodd" clip-rule="evenodd" d="M34.0428 9.56834C28.4299 9.08967 22.7878 9.06188 17.1704 9.48527L16.7678 9.51561C11.4109 9.91936 7.27051 14.3836 7.27051 19.7557V37.5001C7.27051 38.0499 7.5594 38.559 8.03124 38.8411C8.50307 39.1232 9.08845 39.1365 9.57267 38.8763L17.7202 34.4978C18.0991 34.294 18.5227 34.1876 18.9529 34.1876H37.6538C40.0124 34.1876 42.0334 32.5013 42.4563 30.1809C43.3132 25.4784 43.3807 20.666 42.6565 15.9412L42.4432 14.5488C42.0547 12.0139 39.9809 10.0747 37.4257 9.85682L34.0428 9.56834ZM17.4053 12.6014C22.8559 12.1906 28.3309 12.2176 33.7774 12.682L37.1601 12.9705C38.2776 13.0658 39.1843 13.9138 39.3543 15.0223L39.5676 16.4147C40.2393 20.7965 40.1765 25.2596 39.382 29.6209C39.2297 30.4557 38.5024 31.0626 37.6538 31.0626H18.9529C18.0064 31.0626 17.0746 31.2969 16.2408 31.7451L10.3955 34.8865V19.7557C10.3955 16.0184 13.276 12.9127 17.0027 12.6318L17.4053 12.6014Z" fill="#7B8A90"/>
</svg>
