<svg width="25" height="24" viewBox="0 0 25 24" fill="none" xmlns="http://www.w3.org/2000/svg">
<path fill-rule="evenodd" clip-rule="evenodd" d="M3.30207 8.35318C3.02193 10.9561 3.03442 13.9581 3.42424 16.5504C3.63994 17.9848 4.81061 19.0844 6.25568 19.2101L7.76591 19.3413C10.915 19.6151 14.0818 19.6151 17.2309 19.3413L18.7411 19.2101C20.1862 19.0844 21.3569 17.9848 21.5726 16.5504C21.9624 13.9581 21.9749 10.9563 21.6947 8.35333C21.6585 8.05157 21.6178 7.75022 21.5726 7.44937C21.3569 6.01498 20.1862 4.91533 18.7411 4.78971L17.2309 4.65843C14.0818 4.38469 10.915 4.38469 7.76591 4.65843L6.25568 4.78971C4.81061 4.91533 3.63994 6.01498 3.42424 7.44937C3.37901 7.75016 3.33829 8.05147 3.30207 8.35318ZM7.89581 6.1528C10.9584 5.88657 14.0384 5.88657 17.101 6.1528L18.6112 6.28408C19.3655 6.34965 19.9766 6.92367 20.0892 7.67242C20.1009 7.75018 20.1123 7.82797 20.1234 7.9058L14.5624 10.9953C13.2788 11.7084 11.718 11.7084 10.4344 10.9953L4.87343 7.90584C4.88449 7.828 4.89587 7.75019 4.90756 7.67242C5.02016 6.92367 5.63125 6.34965 6.38558 6.28408L7.89581 6.1528ZM20.3069 9.51977C20.5009 11.7875 20.4283 14.0724 20.0892 16.3273C19.9766 17.0761 19.3655 17.6501 18.6112 17.7157L17.101 17.847C14.0384 18.1132 10.9584 18.1132 7.89581 17.847L6.38558 17.7157C5.63125 17.6501 5.02016 17.0761 4.90756 16.3273C4.56847 14.0724 4.49591 11.7876 4.68988 9.5198L9.7059 12.3065C11.4426 13.2713 13.5542 13.2713 15.2908 12.3065L20.3069 9.51977Z" fill="white"/>
</svg>
