<svg width="38" height="38" viewBox="0 0 38 38" fill="none" xmlns="http://www.w3.org/2000/svg">
<path fill-rule="evenodd" clip-rule="evenodd" d="M4.43938 13.2261C3.99583 17.3473 4.0156 22.1005 4.63282 26.205C4.97434 28.4761 6.8279 30.2171 9.11593 30.4161L11.5071 30.6239C16.4932 31.0574 21.5073 31.0574 26.4933 30.6239L28.8845 30.4161C31.1726 30.2171 33.0262 28.4761 33.3677 26.205C33.9849 22.1005 34.0047 17.3476 33.561 13.2263C33.5037 12.7485 33.4393 12.2714 33.3677 11.795C33.0262 9.5239 31.1726 7.78279 28.8845 7.58389L26.4933 7.37603C21.5073 6.94261 16.4932 6.94261 11.5071 7.37603L9.11593 7.58389C6.8279 7.78279 4.97434 9.5239 4.63282 11.795C4.5612 12.2713 4.49673 12.7483 4.43938 13.2261ZM11.7128 9.74212C16.5619 9.32059 21.4385 9.32059 26.2877 9.74212L28.6788 9.94998C29.8731 10.0538 30.8407 10.9627 31.019 12.1482C31.0375 12.2713 31.0555 12.3945 31.0731 12.5177L22.2682 17.4094C20.2358 18.5385 17.7646 18.5385 15.7322 17.4094L6.92737 12.5178C6.94488 12.3945 6.9629 12.2713 6.98141 12.1482C7.15969 10.9627 8.12725 10.0538 9.32161 9.94998L11.7128 9.74212ZM31.3637 15.0732C31.6708 18.6637 31.5559 22.2815 31.019 25.8517C30.8407 27.0373 29.8731 27.9461 28.6788 28.05L26.2877 28.2579C21.4385 28.6794 16.5619 28.6794 11.7128 28.2579L9.32161 28.05C8.12725 27.9461 7.15969 27.0373 6.98141 25.8517C6.44452 22.2815 6.32963 18.6639 6.63675 15.0732L14.5788 19.4854C17.3285 21.013 20.6719 21.013 23.4215 19.4854L31.3637 15.0732Z" fill="#4776B3"/>
</svg>
