<svg width="25" height="24" viewBox="0 0 25 24" fill="none" xmlns="http://www.w3.org/2000/svg">
<path fill-rule="evenodd" clip-rule="evenodd" d="M7.75 10C7.75 7.37665 9.87665 5.25 12.5 5.25C15.1233 5.25 17.25 7.37665 17.25 10C17.25 12.6234 15.1233 14.75 12.5 14.75C9.87665 14.75 7.75 12.6234 7.75 10ZM12.5 6.75C10.7051 6.75 9.25 8.20507 9.25 10C9.25 11.7949 10.7051 13.25 12.5 13.25C14.2949 13.25 15.75 11.7949 15.75 10C15.75 8.20507 14.2949 6.75 12.5 6.75Z" fill="white"/>
<path fill-rule="evenodd" clip-rule="evenodd" d="M4.02244 8.85685C4.37677 4.55824 7.96892 1.25 12.2821 1.25H12.7141C17.0273 1.25 20.6194 4.55824 20.9737 8.85685C21.1641 11.166 20.4508 13.4589 18.9841 15.2526L14.1911 21.1144C13.3161 22.1845 11.6801 22.1845 10.8051 21.1144L6.01204 15.2526C4.54538 13.4589 3.8321 11.166 4.02244 8.85685ZM12.2821 2.75C8.74957 2.75 5.80756 5.45948 5.51737 8.98008C5.35895 10.9019 5.9526 12.8102 7.17326 14.3031L11.9663 20.1649C12.2412 20.501 12.755 20.501 13.0299 20.1649L17.8229 14.3031C19.0436 12.8102 19.6372 10.9019 19.4788 8.98008C19.1886 5.45948 16.2466 2.75 12.7141 2.75H12.2821Z" fill="white"/>
</svg>
