<svg width="42" height="42" viewBox="0 0 42 42" fill="none" xmlns="http://www.w3.org/2000/svg">
<path fill-rule="evenodd" clip-rule="evenodd" d="M20.101 8.34386C13.5134 8.80502 8.3125 14.2951 8.3125 21C8.3125 28.0072 13.9929 33.6875 21 33.6875C26.6138 33.6875 31.377 30.0408 33.0484 24.9877C31.762 25.5192 30.3522 25.8125 28.875 25.8125C22.8344 25.8125 17.9375 20.9157 17.9375 14.875C17.9375 12.4265 18.7427 10.1659 20.101 8.34386ZM5.6875 21C5.6875 12.5431 12.5431 5.6875 21 5.6875C21.7868 5.6875 22.5606 5.74697 23.3168 5.86184C23.8401 5.9413 24.2645 6.32718 24.3929 6.8405C24.5215 7.35383 24.3294 7.89416 23.9053 8.21089C21.8736 9.72886 20.5625 12.1486 20.5625 14.875C20.5625 19.466 24.284 23.1875 28.875 23.1875C30.8598 23.1875 32.6791 22.4935 34.1084 21.3336C34.5191 21.0004 35.0898 20.9461 35.5558 21.1962C36.022 21.4462 36.2925 21.9515 36.242 22.4781C35.4975 30.2421 28.9585 36.3125 21 36.3125C12.5431 36.3125 5.6875 29.4569 5.6875 21Z" fill="white"/>
</svg>
