<svg width="38" height="38" viewBox="0 0 38 38" fill="none" xmlns="http://www.w3.org/2000/svg">
<path fill-rule="evenodd" clip-rule="evenodd" d="M9.24728 15.6059C12.0772 21.768 17.113 26.6671 23.373 29.3218L23.3928 29.3301L24.6022 29.8691C26.1423 30.5553 27.9524 30.068 28.9397 28.7014L30.9575 25.9089C31.0807 25.7384 31.0489 25.5012 30.8852 25.369L27.3627 22.5272C27.1876 22.386 26.93 22.4189 26.796 22.5996L25.4252 24.4495C25.0922 24.8989 24.4909 25.055 23.9815 24.8245C19.3005 22.706 15.539 18.9444 13.4206 14.2635C13.19 13.754 13.3461 13.1527 13.7954 12.8198L15.6453 11.4489C15.8261 11.3149 15.859 11.0574 15.7177 10.8823L12.8756 7.35931C12.7435 7.19556 12.5064 7.16377 12.3358 7.2869L9.52809 9.31382C8.1525 10.3069 7.66808 12.1322 8.37023 13.6767L9.24635 15.6038C9.24667 15.6045 9.24698 15.6052 9.24728 15.6059ZM22.4359 31.5041C15.6339 28.6167 10.1629 23.292 7.08798 16.5948L7.08613 16.5908L6.20817 14.6596C5.03793 12.0855 5.8453 9.04325 8.13795 7.38817L10.9457 5.36125C12.1397 4.49927 13.7994 4.7219 14.724 5.86806L17.5662 9.39106C18.5551 10.6168 18.3247 12.4193 17.0593 13.357L15.9993 14.1426C17.79 17.617 20.6279 20.4549 24.1023 22.2455L24.888 21.1855C25.8256 19.9202 27.6281 19.6899 28.8539 20.6788L32.3763 23.5204C33.5228 24.4454 33.7453 26.1059 32.8825 27.2998L30.8647 30.0924C29.2192 32.37 26.2023 33.1822 23.6357 32.0386L22.4359 31.5041Z" fill="#4776B3"/>
</svg>
