<svg width="25" height="24" viewBox="0 0 25 24" fill="none" xmlns="http://www.w3.org/2000/svg">
<path fill-rule="evenodd" clip-rule="evenodd" d="M6.34193 9.85617C8.12925 13.748 11.3098 16.8422 15.2635 18.5188L15.276 18.5241L16.0398 18.8645C17.0125 19.2979 18.1557 18.9901 18.7793 18.127L20.0537 16.3633C20.1315 16.2556 20.1114 16.1058 20.008 16.0223L17.7833 14.2275C17.6727 14.1383 17.51 14.1591 17.4254 14.2732L16.5596 15.4416C16.3493 15.7254 15.9695 15.824 15.6478 15.6784C12.6914 14.3404 10.3156 11.9647 8.97769 9.00833C8.83207 8.68656 8.93067 8.30681 9.21442 8.09653L10.3828 7.23067C10.497 7.14606 10.5178 6.98344 10.4285 6.87284L8.63348 4.6478C8.55005 4.54438 8.40031 4.5243 8.29258 4.60207L6.51928 5.88223C5.65049 6.50942 5.34454 7.66226 5.788 8.63771L6.34134 9.85487C6.34154 9.85531 6.34174 9.85574 6.34193 9.85617ZM14.6716 19.8971C10.3756 18.0735 6.9202 14.7105 4.97816 10.4807L4.97699 10.4782L4.42249 9.2585C3.68339 7.63275 4.19331 5.71134 5.6413 4.66603L7.41459 3.38587C8.16871 2.84146 9.21694 2.98207 9.80093 3.70596L11.596 5.93101C12.2206 6.70518 12.0751 7.84357 11.2759 8.43581L10.6064 8.93197C11.7374 11.1263 13.5297 12.9187 15.7241 14.0496L16.2203 13.3801C16.8125 12.581 17.9509 12.4355 18.7251 13.0601L20.9498 14.8548C21.6739 15.439 21.8144 16.4877 21.2695 17.2418L19.9951 19.0055C18.9558 20.444 17.0504 20.957 15.4294 20.2347L14.6716 19.8971Z" fill="white"/>
</svg>
