<svg width="16" height="12" viewBox="0 0 16 12" fill="none" xmlns="http://www.w3.org/2000/svg">
<path d="M9.50117 1.61726C9.14068 1.24729 9.14068 0.647443 9.50117 0.277476C9.86166 -0.0924918 10.446 -0.0924918 10.8066 0.277476L15.7296 5.33016C15.9099 5.51509 16 5.75761 16 6.00001C16 6.12848 15.9751 6.251 15.93 6.36267C15.8849 6.47433 15.8181 6.57905 15.7296 6.66987L10.8066 11.7225C10.446 12.0925 9.86166 12.0925 9.50117 11.7225C9.14068 11.3525 9.14068 10.7528 9.50117 10.3828L12.8484 6.94738H0.923077C0.413292 6.94738 0 6.52322 0 6.00001C0 5.47681 0.413292 5.05264 0.923077 5.05264H12.8484L9.50117 1.61726Z" fill="white"/>
</svg>
