<svg width="16" height="12" viewBox="0 0 16 12" fill="none" xmlns="http://www.w3.org/2000/svg">
<path d="M6.49883 1.61726C6.85932 1.24729 6.85932 0.647443 6.49883 0.277476C6.13834 -0.0924918 5.55397 -0.0924918 5.19344 0.277476L0.270363 5.33016C0.0901167 5.51509 0 5.75761 0 6.00001C0 6.12848 0.0249108 6.251 0.0700431 6.36267C0.115089 6.47433 0.181858 6.57905 0.270363 6.66987L5.19344 11.7225C5.55397 12.0925 6.13834 12.0925 6.49883 11.7225C6.85932 11.3525 6.85932 10.7528 6.49883 10.3828L3.15158 6.94738H15.0769C15.5867 6.94738 16 6.52322 16 6.00001C16 5.47681 15.5867 5.05264 15.0769 5.05264H3.15158L6.49883 1.61726Z" fill="white"/>
</svg>
